<svg xmlns="http://www.w3.org/2000/svg" xmlns:xlink="http://www.w3.org/1999/xlink" width="200" height="56" viewBox="0 0 200 56">
  <defs>
    <clipPath id="clip-dappreview">
      <rect width="200" height="56"/>
    </clipPath>
  </defs>
  <g id="dappreview" clip-path="url(#clip-dappreview)">
    <g id="dappreview-2" data-name="dappreview" transform="translate(46 2)">
      <path id="Path_4532" data-name="Path 4532" d="M91.934,143.85l-1.773,6.317H68.22L70.1,143.85Z" transform="translate(-68.22 -129.702)" fill="#8c98a4"/>
      <g id="Group_7675" data-name="Group 7675" transform="translate(3.341 0)">
        <path id="Path_4533" data-name="Path 4533" d="M93.4,109.629c2.558,0,4.907.065,7.252-.028a16.645,16.645,0,0,0,3.738-.59,8.788,8.788,0,0,0,5.973-5.753,60.194,60.194,0,0,0,2.9-13.093,32.928,32.928,0,0,0,.356-5.2c-.09-3.821-2.023-6-5.818-6.367-2.754-.262-5.531-.146-8.3-.2-.574-.012-.637.393-.714.824-.35,2.017-.708,4.031-1.1,6.04-.045.234-.3.606-.464.61-2.209.039-4.421.028-6.774.028.157-.952.289-1.81.441-2.664q.891-5.066,1.79-10.134c.169-.964.393-1.153,1.377-1.155,4.793,0,9.585-.022,14.376,0a15.475,15.475,0,0,1,6.168,1.09c3.471,1.509,5.206,4.3,5.8,7.913a31.312,31.312,0,0,1-.148,8.932A74.209,74.209,0,0,1,117.02,105.2a18.147,18.147,0,0,1-3.835,6.6,13.765,13.765,0,0,1-9.164,4.112c-1.458.14-2.93.169-4.4.175-4.488.022-8.976,0-13.463.012-.659,0-1.076-.13-.931-.946q1.977-11.016,3.909-22.049c.118-.671.362-.931,1.064-.913,1.8.045,3.6.012,5.4.018.268,0,.535.041.864.069C95.447,98.061,94.437,103.766,93.4,109.629Z" transform="translate(-85.203 -71.941)" fill="#8c98a4"/>
        <path id="Path_4534" data-name="Path 4534" d="M392.432,185.339a8.057,8.057,0,0,1,7.2-2.613,5.555,5.555,0,0,1,5.19,5.182,21.954,21.954,0,0,1-2.754,13.821c-2.184,3.726-6.721,4.419-10.056,3.345a4.918,4.918,0,0,1-1.493-.864,10.248,10.248,0,0,1-1.18-1.3l-.83,4.74c-.277,1.574-.573,3.148-.824,4.738-.1.6-.35.858-.984.828-.968-.045-1.94-.045-2.906,0-.759.035-1.035-.173-.879-.984.567-2.989,1.08-5.987,1.607-8.981q1.641-9.312,3.274-18.624a2.59,2.59,0,0,1,.185-.885c.15-.242.464-.574.722-.59,1.131-.065,2.27-.018,3.4-.033.59,0,.724.272.606.787C392.621,184.3,392.554,184.711,392.432,185.339Zm7.716,5.745c-.024-.48-.012-.925-.071-1.362a2.948,2.948,0,0,0-2.361-2.739,4.6,4.6,0,0,0-5.149,2.129,16.09,16.09,0,0,0-1.91,9.428,2.871,2.871,0,0,0,3.02,2.715,4.919,4.919,0,0,0,5.031-3.177A22.024,22.024,0,0,0,400.149,191.084Z" transform="translate(-324.312 -160.862)" fill="#8c98a4"/>
        <path id="Path_4535" data-name="Path 4535" d="M509.859,202.864c-.486,2.792-.984,5.67-1.489,8.549-.016.081-.012.165-.026.248-.22,1.377-.22,1.377-1.6,1.377-.885,0-1.771-.02-2.658,0-.624.02-.752-.244-.649-.817q1.24-6.937,2.448-13.884,1.249-7.106,2.493-14.215c.2-1.09.262-1.18,1.377-1.18.885,0,1.771.022,2.658,0,.659-.02,1.025.134.8.9a7.248,7.248,0,0,0-.159,1,19.051,19.051,0,0,1,2.951-1.753,7.074,7.074,0,0,1,7.083.63,5.562,5.562,0,0,1,2.306,4.155,22.621,22.621,0,0,1-2.6,13.379,8.377,8.377,0,0,1-10.947,3.292A14.188,14.188,0,0,1,509.859,202.864Zm10.8-11.99a8.587,8.587,0,0,0,0-1.078,3.1,3.1,0,0,0-2.089-2.9,4.9,4.9,0,0,0-5.1,1.5,11.728,11.728,0,0,0-2.062,5.78,18.346,18.346,0,0,0-.2,4.114,2.793,2.793,0,0,0,2.843,2.776,4.75,4.75,0,0,0,4.95-2.723A19.7,19.7,0,0,0,520.658,190.874Z" transform="translate(-421.129 -160.692)" fill="#8c98a4"/>
        <path id="Path_4536" data-name="Path 4536" d="M278.568,188.484c-.4-1.072-.834-2.056-1.118-3.083-.067-.24.3-.748.59-.913a16.256,16.256,0,0,1,11.333-1.361,4.412,4.412,0,0,1,3.571,4.738,35.441,35.441,0,0,1-.612,4.681c-.657,3.844-1.377,7.673-2.032,11.523-.13.769-.47,1.029-1.218.984s-1.55,0-2.327-.012c-.95,0-1-.059-.883-1,.037-.3.089-.59.15-1.017a4.562,4.562,0,0,0-.478.346,8.33,8.33,0,0,1-9.473,1.212,5.647,5.647,0,0,1-2.424-5.694,7.179,7.179,0,0,1,6.689-6.583,53.891,53.891,0,0,1,6.459-.252c.838,0,1.316-.187,1.287-1.131-.016-.492.146-.984.157-1.481a2.12,2.12,0,0,0-1.987-2.487,9.363,9.363,0,0,0-6.941,1.157C279.1,188.226,278.875,188.324,278.568,188.484Zm8.718,7.171c-1.712,0-3.282-.081-4.838.031a8.408,8.408,0,0,0-2.682.71,2.962,2.962,0,0,0-1.407,3.329,2.194,2.194,0,0,0,2.333,1.828,12.222,12.222,0,0,0,3.175-.307,3.52,3.52,0,0,0,2.636-2.3A32.4,32.4,0,0,0,287.286,195.655Z" transform="translate(-236.522 -160.867)" fill="#8c98a4"/>
        <path id="Path_4537" data-name="Path 4537" d="M315.27,82.745c1.676,0,3.282-.051,4.881.018a2.477,2.477,0,0,1,2.418,1.706,3.476,3.476,0,0,1-.59,3.435,14.965,14.965,0,0,1-2.034,1.735q.653,2.19,1.442,4.85a6.334,6.334,0,0,1-1.334-.024,1.049,1.049,0,0,1-.669-.541c-.4-1.171-.787-2.361-1.074-3.557-.132-.545-.348-.746-.887-.7-.492.035-.984,0-1.54,0-.27,1.476-.514,2.888-.787,4.295-.2.984-.984.37-1.491.48a1.115,1.115,0,0,1-.327-.72c.59-3.461,1.2-6.914,1.82-10.368C315.13,83.174,315.2,82.987,315.27,82.745Zm.9,5.259a26.4,26.4,0,0,0,3.38-.277,1.861,1.861,0,0,0,1.253-2.219c-.155-.787-.651-1.09-1.771-1.1-.578,0-1.161-.03-1.735.016-.2.016-.494.2-.527.342C316.545,85.777,316.38,86.8,316.171,88Z" transform="translate(-268.402 -80.605)" fill="#8c98a4"/>
        <path id="Path_4538" data-name="Path 4538" d="M540.367,100.049c-.153.354-.266.653-.409.94-1.116,2.255-2.267,4.49-3.345,6.764-.356.757-.944.59-1.462.5-.2-.039-.423-.549-.464-.868-.2-1.548-.346-3.1-.537-4.919-.893,1.895-1.659,3.567-2.477,5.214a1.18,1.18,0,0,1-.754.59c-1.045.14-1.1.045-1.236-1.005-.315-2.381-.651-4.759-.984-7.236.384-.02.732-.022,1.078-.059.539-.059.708.181.75.706a44.664,44.664,0,0,0,.616,4.9c.321-.669.649-1.334.962-2.007.474-1.027.964-2.048,1.395-3.093.307-.744.919-.514,1.413-.453.175.022.393.5.425.787.2,1.558.36,3.122.673,4.744.338-.728.685-1.454,1.015-2.186a21.81,21.81,0,0,0,1.047-2.43,1.272,1.272,0,0,1,1.609-.984A3.644,3.644,0,0,0,540.367,100.049Z" transform="translate(-441.444 -94.426)" fill="#8c98a4"/>
        <path id="Path_4539" data-name="Path 4539" d="M482.677,103.933c-.14.8-.161,1.45.488,1.9.742.515,1.523.368,3.3-.618l.852.915a4.473,4.473,0,0,1-4.686,1.4,2.317,2.317,0,0,1-1.67-1.977c-.208-2.038-.039-4,1.509-5.538a3.7,3.7,0,0,1,3.783-.83c1.324.366,1.989,1.627,1.849,3.238-.13,1.513-.13,1.513-1.625,1.513Zm3.557-1.377c.228-1.18-.089-1.838-.925-1.952a1.915,1.915,0,0,0-2.316,1.952Z" transform="translate(-403.035 -93.673)" fill="#8c98a4"/>
        <path id="Path_4540" data-name="Path 4540" d="M373.544,105.348l.667.722c-1.031,1.657-4.029,2.223-5.454,1.011a2.568,2.568,0,0,1-.828-1.377,7.019,7.019,0,0,1,.787-4.881c1.041-1.757,3.754-2.387,5.2-1.257a3.706,3.706,0,0,1,.872,4.086c-.092.169-.449.266-.687.272-1.3.026-2.6.037-3.9,0-.62-.02-.763.23-.7.787a1.349,1.349,0,0,0,1.605,1.377A13.871,13.871,0,0,0,373.544,105.348Zm-3.661-2.741c.919,0,1.771-.045,2.63.012.8.053.887-.394.787-.984a1.18,1.18,0,0,0-1.18-1.066,2.023,2.023,0,0,0-2.233,2.038Z" transform="translate(-312.199 -93.676)" fill="#8c98a4"/>
        <path id="Path_4541" data-name="Path 4541" d="M415.39,100.157h1.8c.283,1.808.57,3.64.891,5.692l2.276-4.525c.689-1.377.687-1.377,2.394-1.131-.118.264-.209.506-.329.732-1.2,2.261-2.455,4.494-3.589,6.788a1.163,1.163,0,0,1-1.542.663c-.27-.079-.5-.624-.576-.984C416.254,105,415.837,102.612,415.39,100.157Z" transform="translate(-350.427 -94.534)" fill="#8c98a4"/>
        <path id="Path_4542" data-name="Path 4542" d="M456.25,108.285q.348-2.025.7-4.055c.185-1.06.439-2.113.547-3.183.087-.84.484-1.084,1.245-.968.213.033.429.039.73.063-.356,2.028-.7,4.006-1.053,5.983-.057.327-.13.649-.187.984C457.972,108.559,457.879,108.62,456.25,108.285Z" transform="translate(-383.248 -94.521)" fill="#8c98a4"/>
        <path id="Path_4543" data-name="Path 4543" d="M465.45,84.289c.057-1.688.138-1.757,1.847-1.574C467.587,84.25,467.229,84.569,465.45,84.289Z" transform="translate(-390.638 -80.54)" fill="#8c98a4"/>
      </g>
    </g>
  </g>
</svg>
