<svg xmlns="http://www.w3.org/2000/svg" xmlns:xlink="http://www.w3.org/1999/xlink" width="200" height="56" viewBox="0 0 200 56">
  <defs>
    <clipPath id="clip-dappradar">
      <rect width="200" height="56"/>
    </clipPath>
  </defs>
  <g id="dappradar" clip-path="url(#clip-dappradar)">
    <g id="Group_8302" data-name="Group 8302" transform="translate(2 2)">
      <g id="dappradar_1_" data-name="dappradar (1)" transform="translate(0 5.342)">
        <g id="Group_7674" data-name="Group 7674" transform="translate(59.41 11.998)">
          <path id="Path_4522" data-name="Path 4522" d="M595.448,338.743c-.032-.015-.063-.045-.1-.048-3.952-.268-3.829.25-3.8,3.254,0,1.342-.02,2.683,0,4.025.015.568-.088.826-.751.836-2.132.033-2.135.065-2.132-2.07,0-1.522-.028-3.046.022-4.568.083-2.41,1.3-3.664,3.707-3.822,1-.068,2.027,0,3.041,0Z" transform="translate(-458.405 -332.861)" fill="#8c98a4"/>
          <path id="Path_4523" data-name="Path 4523" d="M331.542,333.619c0,1.469-.028,2.693,0,3.915.023.621-.1.891-.816.894-2.118,0-2.115.045-2.115-2.085,0-3.376.03-6.758-.022-10.132-.015-.884.263-1.084,1.1-1.059,3.664.11,7.336-.165,11,.155,2.388.21,3.254,1.151,3.406,3.542a12.641,12.641,0,0,1,0,1.307c-.105,2.41-1.109,3.492-3.539,3.669a28.265,28.265,0,0,0-3.652.268l7.063,4.117c-2.3.03-4.6.713-6.705-.969A60.08,60.08,0,0,0,331.542,333.619Zm4.448-5.9v-.02c-1.231,0-2.465.02-3.7,0-.531-.012-.8.1-.763.711.048.868.025,1.74,0,2.608,0,.418.055.681.576.676,2.5-.025,5.006.018,7.509-.045,1.292-.033,1.542-.478,1.519-2.2-.02-1.292-.333-1.672-1.557-1.712s-2.39-.018-3.587-.018Z" transform="translate(-263.428 -324.483)" fill="#8c98a4"/>
          <path id="Path_4524" data-name="Path 4524" d="M68.36,331.727v-5.772c0-.4-.078-.821.561-.808,3.845.088,7.7-.2,11.534.155,2.3.215,3.279,1.314,3.341,3.629.055,1.957.058,3.922,0,5.879a3.149,3.149,0,0,1-3.1,3.407,73.85,73.85,0,0,1-8.808.155c-1.144.015-2.673.518-3.324-.228-.566-.653-.178-2.14-.193-3.254C68.348,333.832,68.36,332.781,68.36,331.727Zm7.259-4h0c-1.2,0-2.4.022-3.6,0-.5-.013-.7.138-.688.671q.038,3.379,0,6.758c0,.516.148.691.673.683,2.363-.025,4.726,0,7.088-.027,1.216-.02,1.73-.5,1.785-1.735.065-1.524.068-3.054,0-4.578-.055-1.272-.563-1.707-1.882-1.752-1.129-.038-2.258-.01-3.384-.01Z" transform="translate(-68.257 -324.463)" fill="#8c98a4"/>
          <path id="Path_4525" data-name="Path 4525" d="M202.01,344.175c.063-1.407-.12-3.116.1-4.818.25-2.077,1.194-3.074,3.286-3.254a42.579,42.579,0,0,1,6.966,0c2.2.175,3.234,1.314,3.349,3.537a29.756,29.756,0,0,1,0,3.374,3.172,3.172,0,0,1-3.069,3.334,45.966,45.966,0,0,1-6.743.143c-.763,0-1.074.2-.941.964a1.253,1.253,0,0,1,0,.218c0,1.972,0,1.937-2.035,1.955-.713,0-.944-.188-.916-.909C202.048,347.308,202.01,345.889,202.01,344.175Zm6.368-.17h2.072c2.11-.023,2.4-.313,2.418-2.383,0-.5,0-1.016-.018-1.527a1.405,1.405,0,0,0-1.454-1.562q-2.5-.08-5.006,0A1.333,1.333,0,0,0,204.976,340c0,1.089.018,2.182-.04,3.269-.038.671.25.783.831.751C206.633,343.979,207.5,344,208.378,344Z" transform="translate(-168.522 -332.591)" fill="#8c98a4"/>
          <path id="Path_4526" data-name="Path 4526" d="M272.231,336.307a17.994,17.994,0,0,1,4,.135,3.062,3.062,0,0,1,2.626,2.793,15.313,15.313,0,0,1,0,4.448,3.073,3.073,0,0,1-2.911,2.883,43.664,43.664,0,0,1-6.743.155c-.816,0-1.119.158-1.1,1.056.063,2.3,0,2.305-2.305,2.075-.433-.043-.548-.188-.546-.591.02-3.194-.038-6.393.063-9.586.065-2.08,1.251-3.181,3.414-3.354C269.9,336.232,271.069,336.307,272.231,336.307Zm-.648,7.924h1.086c3.437,0,3.847-.5,3.422-3.962a1.51,1.51,0,0,0-1.609-1.534q-2.335-.041-4.671,0a1.482,1.482,0,0,0-1.634,1.617c-.03,1.086,0,2.173-.04,3.254-.023.576.27.646.731.636C269.77,344.206,270.676,344.232,271.582,344.232Z" transform="translate(-215.951 -332.818)" fill="#8c98a4"/>
          <path id="Path_4527" data-name="Path 4527" d="M474.691,328.166c0,1.559.053,3.121,0,4.681-.09,2.095-1.024,3.151-3.089,3.4a29.216,29.216,0,0,1-7.594-.023,3.064,3.064,0,0,1-2.878-3.026,17.689,17.689,0,0,1-.032-3.694c.22-2.355,1.216-3.4,3.6-3.5,2.1-.1,4.207-.075,6.313-.05.648,0,.966-.14.858-.836a3.574,3.574,0,0,1,0-.543c0-2.145,0-2.122,2.143-2.055.578.018.751.2.738.751-.028,1.632,0,3.266,0,4.9Zm-6.155.23v.033c-1.014,0-2.027-.035-3.039,0A1.424,1.424,0,0,0,463.953,330v2.388a1.343,1.343,0,0,0,1.389,1.474,41.541,41.541,0,0,0,4.993.025,1.43,1.43,0,0,0,1.5-1.614c0-1.049-.03-2.1.027-3.149.038-.673-.25-.776-.828-.751-.833.05-1.667.02-2.5.02Z" transform="translate(-362.71 -322.499)" fill="#8c98a4"/>
          <path id="Path_4528" data-name="Path 4528" d="M143.753,340.145c1.2,0,2.4.025,3.6-.015.36-.013.979.308,1.019-.413a1.152,1.152,0,0,0-.836-1.352,9.839,9.839,0,0,0-2.6-.13c-1.094-.028-1.522-.658-1.161-1.72a.428.428,0,0,1,.486-.315,20.719,20.719,0,0,1,4.555.225,2.928,2.928,0,0,1,2.405,2.623,19.967,19.967,0,0,1-.04,4.993,2.641,2.641,0,0,1-2.418,2.43,41.567,41.567,0,0,1-9.233.068c-1.877-.175-2.41-.956-2.428-2.826v-.751c.028-1.837.751-2.656,2.623-2.753,1.342-.075,2.688-.015,4.03-.015Zm.716,1.782c-1.054,0-2.107.033-3.159,0-.971-.038-1.357.353-1.377,1.344-.02,1.044.39,1.454,1.4,1.442,1.707-.022,3.414,0,5.121-.013a3.253,3.253,0,0,0,1.069-.163c1.031-.388.894-1.327.854-2.13-.043-.853-.773-.42-1.186-.451-.9-.078-1.815-.033-2.723-.033Z" transform="translate(-119.869 -332.761)" fill="#8c98a4"/>
          <path id="Path_4529" data-name="Path 4529" d="M530.207,340.095c1.2,0,2.4.03,3.6-.018.35-.015.964.338,1.026-.388a1.155,1.155,0,0,0-.821-1.362,7.876,7.876,0,0,0-2.706-.128c-.826.038-1.116-.168-1.1-1.056,0-.813.21-1.081,1.034-1.014a22.371,22.371,0,0,1,3.9.213,2.981,2.981,0,0,1,2.558,2.966,23.294,23.294,0,0,1-.038,4.46,2.661,2.661,0,0,1-2.438,2.651,40.368,40.368,0,0,1-9.344.05c-1.955-.208-2.523-1.252-2.37-3.674.113-1.782.9-2.541,2.776-2.673.108,0,.218-.013.325-.013h3.6Zm.648,1.785h-3.379c-.8,0-1.081.461-1.1,1.184s-.038,1.517.929,1.539c2.1.045,4.213,0,6.318-.025a1.1,1.1,0,0,0,.42-.113c.969-.468.854-1.377.778-2.188-.068-.751-.751-.353-1.134-.378-.941-.068-1.89-.025-2.836-.023Z" transform="translate(-409.544 -332.711)" fill="#8c98a4"/>
          <path id="Path_4530" data-name="Path 4530" d="M402.846,340.112c1.161,0,2.325.033,3.487-.02.355-.015.974.348,1.051-.345a1.2,1.2,0,0,0-.9-1.424,7.528,7.528,0,0,0-2.6-.1c-.954.078-1.154-.273-1.111-1.151.033-.671.148-.976.9-.919a21.85,21.85,0,0,1,4,.213,3.038,3.038,0,0,1,2.578,3.179c.04,1.269.045,2.543,0,3.812a2.861,2.861,0,0,1-2.813,3.134,47.334,47.334,0,0,1-8.485.1c-2.233-.108-2.9-1-2.883-3.226a6.051,6.051,0,0,1,.123-1.5,2.37,2.37,0,0,1,2.5-1.692c1.377-.063,2.753-.015,4.14-.015Zm.548,1.782c-1.051,0-2.1.027-3.151,0-1-.033-1.322.42-1.334,1.382s.375,1.4,1.332,1.4c1.775-.013,3.552.02,5.326-.015,1.4-.027,1.825-.543,1.857-1.962.015-.6-.125-.838-.768-.808-1.094.04-2.175,0-3.261,0Z" transform="translate(-314.018 -332.728)" fill="#8c98a4"/>
        </g>
        <path id="Path_4531" data-name="Path 4531" d="M260.84,37.878l-9.785-16.962a3.71,3.71,0,0,0-3.214-1.856h-19.6a3.715,3.715,0,0,0-3.215,1.855l-9.792,16.962a3.712,3.712,0,0,0,0,3.713l9.792,16.962a3.715,3.715,0,0,0,3.216,1.856h19.587a3.71,3.71,0,0,0,3.222-1.856l9.794-16.962A3.712,3.712,0,0,0,260.84,37.878ZM240.794,54.109a4.1,4.1,0,0,1-1.264.14c-.608-.068-1.664.605-1.615-.76.033-.922-.5-1.989,1.3-2.209A11.643,11.643,0,1,0,230,31.321a11.358,11.358,0,0,0-1.952,14.052c.22.374.426,1.363.956.875.623-.574,2.058-.909,1.449-2.277a13.516,13.516,0,0,1-1.044-2.837,8.8,8.8,0,1,1,17.4-2.609,8.734,8.734,0,0,1-7.541,9.787c-.62.072-1.464.337-1.285-.734.127-.764-.792-1.98.88-2.23a5.484,5.484,0,0,0,4.893-4.717,5.706,5.706,0,0,0-3.232-6.191,5.486,5.486,0,0,0-6.477,1.02,5.733,5.733,0,0,0-1.023,6.944c.965-.895,2.1-1.5,2.1-3.141a2.762,2.762,0,0,1,2.9-2.44,2.928,2.928,0,0,1,2.868,2.884,2.723,2.723,0,0,1-2.541,2.946,3.37,3.37,0,0,0-2.432,1.225c-2.162,2.129-4.353,4.229-6.529,6.344-.522.507-1.049,1.036-1.685.185-2.671-3.578-4.538-7.385-4.172-12.069a14.642,14.642,0,0,1,13.71-13.206A14.385,14.385,0,0,1,252.357,36.82C253.761,45.156,248.893,52.434,240.794,54.109Z" transform="translate(-214.74 -19.06)" fill="#8c98a4"/>
      </g>
    </g>
  </g>
</svg>
