<svg xmlns="http://www.w3.org/2000/svg" xmlns:xlink="http://www.w3.org/1999/xlink" width="200" height="56" viewBox="0 0 200 56">
  <defs>
    <clipPath id="clip-dappcom">
      <rect width="200" height="56"/>
    </clipPath>
  </defs>
  <g id="dappcom" clip-path="url(#clip-dappcom)">
    <g id="dappcom-2" data-name="dappcom" transform="translate(45 3)">
      <path id="Path_4515" data-name="Path 4515" d="M566.047,142.024a6.349,6.349,0,0,0-6.451-6.454h-9.5a6.341,6.341,0,0,0-6.441,6.458v15.98h.7c5.088,0,10.178-.037,15.266.013a6.4,6.4,0,0,0,6.427-6.433Q566.055,146.81,566.047,142.024Zm-4.436,9.66a1.965,1.965,0,0,1-1.711,1.88,6.976,6.976,0,0,1-.918.06H548.845c-.245,0-.486-.031-.782-.05V149.5c0-2.36.045-4.721-.021-7.079a2.216,2.216,0,0,1,2.47-2.472c2.88.028,5.76,0,8.64.011a5.207,5.207,0,0,1,.745.057,1.972,1.972,0,0,1,1.714,1.878Q561.639,146.787,561.611,151.684Z" transform="translate(-455.964 -122.041)" fill="#8c98a4"/>
      <path id="Path_4516" data-name="Path 4516" d="M18.125,135.572q-4.926-.015-9.851,0a5.869,5.869,0,0,0-1.638.225A6.366,6.366,0,0,0,2,142.074v9.448a6.43,6.43,0,0,0,6.475,6.5c5.049-.074,10.1-.019,15.149-.019h.746c.011-.257.026-.427.026-.6V141.849A6.328,6.328,0,0,0,18.125,135.572Zm1.842,17.344v.648c-.251.021-.439.049-.626.049-3.531,0-7.06.01-10.591,0a2.072,2.072,0,0,1-2.266-1.546,2.966,2.966,0,0,1-.068-.74v-9.035A2.086,2.086,0,0,1,8.7,139.95c1.208-.024,2.417,0,3.625,0,1.766,0,3.531.032,5.3-.01a2.221,2.221,0,0,1,2.375,2.389C19.927,145.855,19.967,149.4,19.967,152.917Z" transform="translate(-1.998 -122.037)" fill="#8c98a4"/>
      <path id="Path_4517" data-name="Path 4517" d="M385.384,140.519a6.277,6.277,0,0,0-5.677-4.978q-5.357-.073-10.714,0a6.183,6.183,0,0,0-5.753,5.535c-.105,2.721-.023,5.451-.023,8.177h-.045c0,2.687.011,5.376-.011,8.064,0,.51.162.648.659.648,5.146-.018,10.293,0,15.437-.015a6.288,6.288,0,0,0,6.258-6.326v-9.792A6.983,6.983,0,0,0,385.384,140.519Zm-4.245,10.769a2.1,2.1,0,0,1-2.37,2.266c-3.089.015-6.178,0-9.268,0-.486,0-.96-.016-1.439,0-.393.016-.533-.131-.528-.534.016-1.842,0-3.685,0-5.527v-5.352a2.039,2.039,0,0,1,2.1-2.242q4.695-.068,9.381,0a2.025,2.025,0,0,1,2.117,2.219Q381.165,146.718,381.139,151.288Z" transform="translate(-304.693 -121.987)" fill="#8c98a4"/>
      <path id="Path_4518" data-name="Path 4518" d="M205.027,149.308h0c0-2.477.013-4.954,0-7.431a6.275,6.275,0,0,0-6.335-6.305q-4.9-.015-9.792,0a6.286,6.286,0,0,0-6.213,6.192q-.024,4.983,0,9.964A6.278,6.278,0,0,0,189,158c5.109.01,10.217-.008,15.324.019.618,0,.725-.212.72-.759C205.014,154.608,205.027,151.958,205.027,149.308Zm-4.371,3.537v.727c-.306.019-.549.049-.793.049H189.558a2.19,2.19,0,0,1-2.506-2.493v-8.693a2.188,2.188,0,0,1,2.511-2.49h8.58c1.743,0,2.516.785,2.516,2.535Z" transform="translate(-153.426 -122.037)" fill="#8c98a4"/>
      <path id="Path_4519" data-name="Path 4519" d="M117.611,52H113.26v8.852h4.351Z" transform="translate(-95.248 -52)" fill="#8c98a4"/>
      <path id="Path_4520" data-name="Path 4520" d="M543.87,311.957h4.353V303.1H543.87Z" transform="translate(-456.149 -262.45)" fill="#8c98a4"/>
      <path id="Path_4521" data-name="Path 4521" d="M363.644,302.88c-.3,0-.414.117-.414.4,0,2.707,0,5.413.015,8.12,0,.134.178.38.277.382,1.339.026,2.676.018,4.047.018v-8.92C366.214,302.885,364.928,302.9,363.644,302.88Z" transform="translate(-304.752 -262.266)" fill="#8c98a4"/>
    </g>
  </g>
</svg>
