<svg xmlns="http://www.w3.org/2000/svg" xmlns:xlink="http://www.w3.org/1999/xlink" width="200" height="56" viewBox="0 0 200 56">
  <defs>
    <clipPath id="clip-stateofthedapps">
      <rect width="200" height="56"/>
    </clipPath>
  </defs>
  <g id="stateofthedapps" clip-path="url(#clip-stateofthedapps)">
    <g id="statedaps" transform="translate(10 9)">
      <g id="Group_7676" data-name="Group 7676" transform="translate(0 0)">
        <path id="Path_4544" data-name="Path 4544" d="M374.154,298.1l-2.064-.286v-5.147l1.924-.244V277.834c.314-.234.4-.349.492-.349,3.646,0,7.3-.115,10.94,0,2.273.08,3.359,1.278,3.7,3.527a7.558,7.558,0,0,1,.115,1.191c0,9.184.07,18.371-.028,27.555-.038,3.492-1.372,4.721-4.84,4.808-3.352.087-6.708.021-10.245.021Zm5.552-.035v9.121a5.423,5.423,0,0,0,.038,1.194,1.222,1.222,0,0,0,.5.775c1.879.89,3.45-.147,3.454-2.252V285.7c0-3.108-.077-3.185-3.143-3.048a4.881,4.881,0,0,0-.733.164v9.592l2.357.262v5.189Z" transform="translate(-271.544 -277.109)" fill="#8c98a4"/>
        <path id="Path_4545" data-name="Path 4545" d="M84.516,299.919h5.109v7.064c0,.918-.122,1.959,1.25,1.962s1.3-1.006,1.278-1.949a6.714,6.714,0,0,1,0-1.027,10.92,10.92,0,0,0-3.82-10.078c-5.028-4.641-4.463-10.654-3.632-16.611.255-1.805,1.791-2.6,3.523-2.7a48.368,48.368,0,0,1,5.646,0c2.284.147,3.555,1.208,3.712,3.492.21,3.052.052,6.128.052,9.32h-5.1c0-2,.066-4.033-.049-6.059a1.953,1.953,0,0,0-1.006-1.456c-.883-.276-1.435.22-1.533,1.271-.349,3.82.293,7.193,3.373,9.907a13.243,13.243,0,0,1,4.54,11.492c-.157,2.043-.042,4.114-.272,6.146a3.537,3.537,0,0,1-3.733,3.492,47.746,47.746,0,0,1-5.475,0c-2.315-.126-3.646-1.1-3.8-3.394C84.341,307.242,84.516,303.652,84.516,299.919Z" transform="translate(-84.155 -276.504)" fill="#8c98a4"/>
        <path id="Path_4546" data-name="Path 4546" d="M568.776,289.439V283.52c0-.866-.077-1.641-1.187-1.694-1.191-.056-1.32.7-1.4,1.669-.349,3.66.409,6.858,3.3,9.428a13.657,13.657,0,0,1,4.658,11.963c-.164,1.983-.035,4-.311,5.968-.314,2.221-1.47,3.209-3.674,3.342a47.583,47.583,0,0,1-5.646,0c-2.252-.136-3.342-1.236-3.733-3.509a11.566,11.566,0,0,1-.22-1.861c-.021-2.905,0-5.807,0-8.852h5.357v7.145c0,.887-.077,1.795,1.18,1.847,1.4.056,1.33-.946,1.348-1.879a16.864,16.864,0,0,1,0-1.882A9.655,9.655,0,0,0,565,296.363c-5.193-4.662-4.889-10.72-4.082-16.828.237-1.823,1.638-2.835,3.691-2.947a49.361,49.361,0,0,1,5.475,0c2.266.129,3.593,1.149,3.768,3.429.241,3.1.063,6.226.063,9.428Z" transform="translate(-394.138 -276.509)" fill="#8c98a4"/>
        <path id="Path_4547" data-name="Path 4547" d="M439.656,314.383h-5.549a16.386,16.386,0,0,1-.293-2.794c.087-1.627-.513-2.336-2.168-2.053a11.692,11.692,0,0,1-1.33.066,34.347,34.347,0,0,1-.4,3.75,1.648,1.648,0,0,1-1.1,1.069,36.722,36.722,0,0,1-4.03.049c1.184-12.435,2.35-24.674,3.544-37.2,2.42,0,4.8-.08,7.155.087.349.024.835,1.184.9,1.858.506,4.651.915,9.317,1.358,13.968q.908,9.46,1.805,18.919C439.61,312.784,439.614,313.482,439.656,314.383ZM432,285.693H431.8c-.349,6.212-.7,12.424-1.048,18.685h2.416C432.77,298.093,432.389,291.895,432,285.693Z" transform="translate(-305.835 -276.993)" fill="#8c98a4"/>
        <path id="Path_4548" data-name="Path 4548" d="M160.461,277.28c2.413,0,4.63.017,6.851,0,1.372,0,1.128,1.065,1.2,1.826.478,4.651.915,9.306,1.351,13.968q.95,10.127,1.875,20.278c.024.279,0,.566,0,1.135-1.624,0-3.251.052-4.871-.049-.283-.017-.7-.663-.754-1.065-.206-1.17-.272-2.361-.405-3.667h-3.248c-.126,1.177-.192,2.416-.419,3.625-.08.426-.527,1.079-.856,1.11-1.341.129-2.7.056-4.271.056C158.107,302.017,159.274,289.778,160.461,277.28Zm4.812,27.115c-.388-6.334-.775-12.571-1.159-18.794h-.182q-.527,9.379-1.048,18.79Z" transform="translate(-131.511 -277.009)" fill="#8c98a4"/>
        <path id="Path_4549" data-name="Path 4549" d="M516.547,277.727c3.782,0,7.364-.147,10.923.063,1.823.1,2.9,1.578,2.951,3.841.119,5.13.133,10.27,0,15.4-.07,2.626-1.316,3.778-3.946,4.086a38.044,38.044,0,0,1-4.162.024v13.594a47.727,47.727,0,0,1-4.794-.066c-.349-.035-.908-.876-.918-1.362-.084-3.143-.045-6.286-.045-9.428v-26.19Zm5.786,17.928c2.27.332,2.546.143,2.567-1.917.031-2.965.038-5.936,0-8.9-.028-2.011-.5-2.3-2.567-1.763Z" transform="translate(-365.556 -277.267)" fill="#8c98a4"/>
        <path id="Path_4550" data-name="Path 4550" d="M477.352,300.913v13.521a44.907,44.907,0,0,1-4.686-.066c-.349-.035-.866-.911-.876-1.4-.077-3.649-.045-7.3-.045-10.954,0-7.647.031-15.3-.024-22.946,0-1.376.328-1.931,1.8-1.861,2.444.108,4.91-.017,7.361.045,3.293.084,4.627,1.268,4.714,4.54q.2,7.27,0,14.547c-.084,3.164-1.4,4.341-4.588,4.557C479.87,300.975,478.735,300.913,477.352,300.913Zm.126-18.214v12.7c2.361.244,2.57.084,2.581-2.029q.024-4.365,0-8.73C480.045,282.6,479.657,282.314,477.478,282.7Z" transform="translate(-336.384 -276.959)" fill="#8c98a4"/>
        <path id="Path_4551" data-name="Path 4551" d="M244.846,277.253v5.238h-4.889v9.847l3.817.175v5.29h-3.841v11.279h4.857v5.409c-2.532,0-5.07.021-7.609,0-3.415-.031-2.965.436-2.972-3.017q-.031-13.269,0-26.539c0-2.486.168-4.973.255-7.459,2.5-.07,4.994-.143,7.487-.2C242.873,277.235,243.778,277.253,244.846,277.253Z" transform="translate(-181.801 -276.989)" fill="#8c98a4"/>
        <path id="Path_4552" data-name="Path 4552" d="M134.888,314.667h-5.793V282.89l-3.035-.175V277.68h11.681v5l-2.853.182Z" transform="translate(-111.427 -277.269)" fill="#8c98a4"/>
        <path id="Path_4553" data-name="Path 4553" d="M199.94,282.61l-2.961-.154c0-1.453-.059-2.86.045-4.253a1.289,1.289,0,0,1,.911-.873c3.523-.063,7.05-.038,10.689-.038v5.133l-2.944.217v31.843c-1.694,0-3.164.066-4.623-.049a1.453,1.453,0,0,1-.957-1.006,34.149,34.149,0,0,1-.056-3.59V284.659C200.041,284.006,199.975,283.336,199.94,282.61Z" transform="translate(-157.57 -277.013)" fill="#8c98a4"/>
        <path id="Path_4554" data-name="Path 4554" d="M280.489,296.739a6.261,6.261,0,0,1,6.24-6.359,6.334,6.334,0,0,1,.038,12.669,6.237,6.237,0,0,1-6.279-6.31Zm6.338,4.616A4.613,4.613,0,1,0,283.534,300,4.655,4.655,0,0,0,286.826,301.355Z" transform="translate(-211.929 -285.534)" fill="#8c98a4"/>
        <path id="Path_4555" data-name="Path 4555" d="M306.694,337.5h5.51c0-1.4-.066-2.752.042-4.086.031-.388.562-.733.866-1.1.276.349.786.667.793,1.006.056,3.7.035,7.4.035,11.111-1.236.513-1.805.283-1.746-1.048s0-2.6,0-4.033h-5.479c0,1.348-.059,2.65,0,3.942s-.447,1.613-1.791,1.247c0-3.775-.021-7.529.038-11.279,0-.318.566-.625.869-.936.286.328.8.643.824.992C306.767,334.653,306.694,336.021,306.694,337.5Z" transform="translate(-227.83 -312.829)" fill="#8c98a4"/>
        <path id="Path_4556" data-name="Path 4556" d="M343.976,344.528h-6.984c0-3.883-.024-7.682.045-11.5,0-.279.642-.765,1.006-.782,1.708-.084,3.422-.073,5.133,0,.328,0,.639.443.957.677-.328.286-.625.761-.985.814a9.668,9.668,0,0,1-2.56.031c-1.53-.185-2.116.416-1.893,1.917.073.5.056,1.013.094,1.795,1.159,0,2.273.038,3.387,0,1.17-.052,1.376.492.985,1.62h-4.337v3.942c1.428,0,2.835-.08,4.222.045.443.042.835.632,1.25.971Z" transform="translate(-248.7 -312.745)" fill="#8c98a4"/>
        <path id="Path_4557" data-name="Path 4557" d="M321.955,292.224v4.19c1.275,0,2.444.035,3.635,0,1.048-.042,1.523.311,1.072,1.592h-4.847c0,1.428.073,2.675-.038,3.9-.038.405-.552.768-.845,1.152-.3-.377-.852-.751-.859-1.135-.07-3.359-.024-6.722-.052-10.081,0-.842.244-1.271,1.156-1.257,1.823.031,3.649-.042,5.465.049.388.021.747.566,1.121.869-.367.237-.723.663-1.1.681C325.139,292.269,323.61,292.224,321.955,292.224Z" transform="translate(-237.657 -285.671)" fill="#8c98a4"/>
        <path id="Path_4558" data-name="Path 4558" d="M281.941,333.8a14.417,14.417,0,0,1-2.238-.031c-.349-.056-.625-.45-.932-.7.272-.276.534-.786.814-.793q3.251-.1,6.509,0c.286,0,.562.5.845.761-.3.255-.566.674-.894.73-2.375.409-2.378.384-2.378,2.811v7.857c-1.215.388-1.746.171-1.746-1.065C281.969,340.3,281.941,337.22,281.941,333.8Z" transform="translate(-210.811 -312.771)" fill="#8c98a4"/>
      </g>
    </g>
  </g>
</svg>
